<svg xmlns="http://www.w3.org/2000/svg" width="102" height="490"><path fill="#4A526D" d="M0 0h102v490H0z"/><path fill="#FEFEFE" d="M0 0h102v490H71V63H0z"/><path fill="#FCFCFC" d="M0 76h70v93H0z"/><path fill="#FDFDFD" d="M0 0h102v63H0z"/><path fill="#FEFEFE" d="M71 63h31v142H71z"/><path fill="#F6F6F9" d="M71 137h31v68H71z"/><path fill="#464D67" d="M0 63h71v427h-1V76H0z"/><path fill="#C9A05E" d="M47.75 12.188c5.036 2.808 9.842 7.1 11.938 12.625 1.102 7.72-.42 13.35-4.313 19.937-4.472 4.237-9.775 6.44-15.937 6.75-5.466-.286-9.919-2.224-13.977-5.89-4.626-5.14-5.97-10.568-5.766-17.31.807-6.091 3.566-10.023 8.368-13.737 6.24-4.397 12.515-4.647 19.687-2.376"/><path fill="#E1E3E7" d="M23 94c3.458-.058 6.916-.094 10.375-.125l2.984-.05 2.852-.02 2.634-.032C44 94 44 94 46 96c.227 2.797.227 2.797.195 6.32l-.02 3.809-.05 3.996q-.016 2.01-.027 4.02-.036 4.927-.098 9.855c-3.625.029-7.25.047-10.875.063l-3.129.025-2.988.01-2.761.016C24 124 24 124 22 123c-1.786-8.831-2.859-20.734 1-29"/><path fill="#E7E8EB" d="M42 279c6.152 8.745 5.76 17.751 5 28-1.745 1.745-4.161 1.13-6.531 1.133l-3.395.004-3.574-.012-3.574.012-3.395-.004-3.138-.004C21 308 21 308 20 307a57 57 0 0 1-.098-4.035l.01-2.451.026-2.577.013-2.587q.02-3.175.049-6.35h2l.188-2.187C25.054 276.89 33.396 278.476 42 279"/><path fill="#5C637B" d="m27.656 186.867 2.848-.004 2.996.012 2.996-.012 2.848.004 2.63.004C44 187 44 187 45 188c.976 7.4 1.608 16.138-1.293 23.105-3.122 3.655-5.555 4.74-10.32 5.383-3.532.069-6.886-.027-10.387-.488-1.803-1.803-1.13-4.54-1.133-6.969l-.004-3.668.012-3.863-.012-3.863.004-3.668.004-3.393c.219-4.36 1.875-3.704 5.785-3.709"/><path fill="#FA0505" d="M59 267c3.839 1.99 6.997 4.106 9 8 .55 4.238.291 6.44-1.687 10.25-2.874 3.418-4.917 5.436-9.458 6.031-4.715.188-8.183-.041-11.855-3.281-2.873-4.36-3.817-7.823-3-13 4.548-6.996 8.74-9.015 17-8"/><path fill="#5D647C" d="M37.004 372.793c3.182 1.734 4.972 3.171 6.996 6.207.6 4.542.365 6.447-2.187 10.313-4.318 4.125-7.097 4.775-12.938 4.75l-2.57-.09c-2.468-.088-2.468-.088-5.305 1.027l.125-2.812c.146-3.346.146-3.346-2.125-6.188-.457-4.111-.457-6.265 1.75-9.812 4.631-4.503 10.085-5.836 16.254-3.395"/><path fill="#CEA156" d="m34.066 16.902 2.496.035 2.504.028L41 17v3h-2v10h2l1-6 2 2c-.375 3.125-.375 3.125-1 6l6 1v1l-8.375.5-2.406.145C32.227 35 32.227 35 30 35c3.121 3.68 5.492 4.653 10.188 5.563 3.23.628 3.23.628 5.812 1.437l1 3c-1.786 1.786-4.337 1.215-6.75 1.25l-3.172.078C33.574 45.955 31.796 45.113 29 43c-2.431-3.065-4-6.023-4-10l-5 2v-2l4-1 .262-1.793c.99-5.57 2.21-8.492 6.738-12.207 1-1 1-1 3.066-1.098"/><path fill="#97524D" d="M43 12c5.302.416 8.214 1.214 12 5 4.377 5.836 5.485 9.73 5 17-1.485 5.743-3.713 10.983-8.941 14.191-6.033 3.011-11.696 4.208-18.227 2.114C27.942 48.12 24.906 45.49 22 41c-.812-3.875-.812-3.875-1-7l4-1c.315.699.63 1.397.953 2.117l1.297 2.758 1.266 2.742C30.192 43.308 31.004 44.06 34 45c2.914.279 2.914.279 6 .188l3.125-.02C45.6 45.023 47.67 44.828 50 44c1.125-1.833 1.125-1.833 2-4a45 45 0 0 1 6-7h-2l-1 2-.227-2.45c-.64-7.123-.64-7.123-4.648-12.675C46.649 17.767 46.649 17.767 43 16z"/><path fill="#E2B562" d="M71 137h4v67h-4z"/><path fill="#4E546E" d="M31 281q2.686-.118 5.375-.187l3.023-.106L42 281c2.418 3.627 2.806 4.726 2 9-3.088 3.911-6.219 7.406-11 9a923 923 0 0 1-5-4.375l-2.812-2.46L23 290v-2l7-1z"/><path fill="#DBDCE2" d="m27.656 186.867 2.848-.004 2.996.012 2.996-.012 2.848.004 2.63.004C44 187 44 187 45 188c.976 7.4 1.608 16.138-1.293 23.105-3.122 3.655-5.555 4.74-10.32 5.383-3.532.069-6.886-.027-10.387-.488-1.803-1.803-1.13-4.54-1.133-6.969l-.004-3.668.012-3.863-.012-3.863.004-3.668.004-3.393c.219-4.36 1.875-3.704 5.785-3.709M24 189v25h11v-8h8v-17z"/><path fill="#5D647C" d="M23 94c3.458-.058 6.916-.094 10.375-.125l2.984-.05 2.852-.02 2.634-.032C44 94 44 94 46 96c.227 2.797.227 2.797.195 6.32l-.02 3.809-.05 3.996q-.016 2.01-.027 4.02-.036 4.927-.098 9.855c-3.625.029-7.25.047-10.875.063l-3.129.025-2.988.01-2.761.016C24 124 24 124 22 123c-1.786-8.831-2.859-20.734 1-29m0 1v4h3v2h-3l1 4 2-1v3h-3l1 4 2-1v3l-3-1v4h3v3l-3-1v4h20V95z"/><path fill="#E3E5EC" d="M102 423v16c-7 1-7 1-9.875-.437-2.45-2.956-3.069-4.823-3.336-8.594.342-3.195 1.937-4.825 4.211-6.969 2-1 2-1 9 0M102 362v16c-7 1-7 1-9.875-.437-2.45-2.956-3.069-4.823-3.336-8.594.342-3.195 1.937-4.825 4.211-6.969 2-1 2-1 9 0M102 300v16c-7 1-7 1-9.875-.437-2.45-2.956-3.069-4.823-3.336-8.594.342-3.195 1.937-4.825 4.211-6.969 2-1 2-1 9 0M102 103v16c-7 1-7 1-9.875-.437-2.45-2.956-3.069-4.823-3.336-8.594.342-3.195 1.937-4.825 4.211-6.969 2-1 2-1 9 0"/><path fill="#EAEBEE" d="M44 286c1.911 1.599 2.907 2.482 3.356 4.977l-.028 2.218-.016 2.418-.062 2.512-.016 2.535c-.08 6.186-.08 6.186-1.234 7.34-1.854.087-3.71.107-5.566.098l-3.409-.01-3.587-.026-3.6-.013Q25.419 308.03 21 308v-4h2v2l20-1-7-6c2-4 2-4 4.563-6.5 2.3-2.36 3.083-3.316 3.437-6.5"/><path fill="#9E5F5B" d="M42 11c-.195 1.863-.195 1.863-1 4-2.18 1.23-2.18 1.23-4.875 2.188l-2.68.98A924 924 0 0 1 28 20c-.99 1.995-.99 1.995-1.625 4.375l-.727 2.398L25 29l-1 3c-2.062.688-2.062.688-4 1-.492-5.908.46-10.157 4-15 5.767-5.36 10.065-7.15 18-7"/><path fill="#D7D9DF" d="M37.004 372.793c3.182 1.734 4.972 3.171 6.996 6.207.6 4.542.365 6.447-2.187 10.313-4.318 4.125-7.097 4.775-12.938 4.75l-2.57-.09c-2.468-.088-2.468-.088-5.305 1.027l.125-2.812c.146-3.346.146-3.346-2.125-6.188-.457-4.111-.457-6.265 1.75-9.812 4.631-4.503 10.085-5.836 16.254-3.395M21 379c-.854 5.22.365 8.5 3 13 6.1.325 10.694.449 16-3 2.392-1.986 2.392-1.986 2.5-5.812-.112-3.614-.494-4.18-2.937-7.188-3.328-2.313-6.373-2.73-10.372-2.48-3.984.873-5.57 2.322-8.191 5.48"/><path fill="#A9706B" d="M43 12c5.302.416 8.214 1.214 12 5 4.502 6.002 5.143 9.59 5 17l-1-2h-2l2-4-3-1c-2-1-2-1-3.125-3.25-2.283-3.349-4.687-4.596-8.23-6.441L43 16z"/><path fill="#575E7C" d="M13 225c4.044.467 8.02 1.156 12 2v2h-2v6h-4c-1.578.03-1.578.03-3.187.063C13 235 13 235 12 234c-.133-1.812-.133-1.812-.125-4l-.008-2.187C12 226 12 226 13 225"/><path fill="#4E5670" d="M29 299c3.25.125 3.25.125 6 1l2-1q1.755 1.465 3.5 2.938l1.969 1.652L44 305v1H23z"/><path fill="#E6E7EB" d="M23 187c3.48-.029 6.958-.047 10.438-.062l3.01-.026 2.86-.01 2.65-.016C44 187 44 187 45 188c.087 1.489.107 2.981.098 4.473l-.01 2.724-.026 2.865-.013 2.877Q45.03 204.47 45 208l-3 1v-2h-5l-1 4v-5h7v-17H23z"/><path fill="#6D6D6D" d="M64 26h18l-1 3-2-1 1 8-4-1 1-7-4 1v7l-4-1 1-7h-3l1 8-3-1 1-7h-2z"/><path fill="#742920" d="m29 33 3.813.438C38.2 34.038 43.599 34.526 49 35v3c-4.759 2.788-9.629 2.803-15 2-3.187-2.375-3.187-2.375-5-5z"/><path fill="#F1F1F3" d="M45 386h2c1.007 5.035.974 8.24-1 13q-2.938-.212-5.875-.437l-3.305-.247C34 398 34 398 32 397v-2l3.75-.687c4.187-1.03 5.93-2.6 8.25-6.313z"/><path fill="#B0BBC2" d="M32.938 412.5c2.239.736 2.239.736 5.062-.5v7h3v-7h2v8q-3.22.039-6.437.063l-3.622.035C30 420 30 420 29 419c-.04-2-.043-4 0-6 2-1 2-1 3.938-.5"/><path fill="#FDFDFE" d="M102 427v8c-5.411 1.323-5.411 1.323-7.937-.062-1.59-2.898-.938-4.841-.063-7.938 2.862-1.43 4.934-.6 8 0M102 366v8c-5.411 1.323-5.411 1.323-7.937-.062-1.59-2.898-.938-4.841-.063-7.938 2.862-1.43 4.934-.6 8 0M102 304v8c-5.411 1.323-5.411 1.323-7.937-.062-1.59-2.898-.938-4.841-.063-7.938 2.862-1.43 4.934-.6 8 0M102 107v8c-5.411 1.323-5.411 1.323-7.937-.062-1.59-2.898-.938-4.841-.063-7.938 2.862-1.43 4.934-.6 8 0"/><path fill="#DBE4E3" d="M9 410c2.875-.125 2.875-.125 6 0 2 2 2 2 2.25 5-.25 3-.25 3-2.25 5-3.125.125-3.125.125-6 0z"/><path fill="#C8C4C2" d="M37 23h1l1 7h2l1-6 2 2c-.375 3.125-.375 3.125-1 6l6 1v1q-4.186.33-8.375.625l-2.406.195c-2.07.14-4.145.168-6.219.18l-2-2 7-1-.562-3.375C36 25 36 25 37 23"/><path fill="#5D5D5D" d="M94 26h4v10l-4-1-3 1-1-1-4 1 1-9h3l1 5h2z"/><path fill="#5E657C" d="m22 95 1 4h3v2h-3l1 3h2v3h-3l1 3h2v3h-2l-1 3h3v3h-2l-1 3h2l-1 2-2-1c-1.71-8.449-2.52-19.698 0-28"/><path fill="#E2E3E7" d="M43 382c.813 1.625.813 1.625 1 4-2.794 4.109-5.008 6.89-10 8-2.574.079-5.122.063-7.695-.027-2.468-.088-2.468-.088-5.305 1.027l.063-2.75c-.052-2.677-.285-4.72-1.063-7.25 3.875 3.75 3.875 3.75 5 6 5.7.342 10.166.453 15-3 1.902-3.05 1.902-3.05 3-6"/><path fill="#DFE0E5" d="M42 279v2H31v6h-7l-1-3c4.56-7.015 11.358-5.465 19-5"/><path fill="#E8E9F0" d="M102 485v5H90c3.203-6.405 5.399-6.246 12-5"/><path fill="#B8BEC6" d="M38 224h2v11h-6c-.625-2.875-.625-2.875-1-6l2-2h3z"/><path fill="#7A7595" d="m7 133 3 1c1.188 2.563 1.188 2.563 2 5l3-6h2v10h-1l-1-5-2 5h-2l-1-3-1 3H7z"/><path fill="#A36561" d="M25 33a198 198 0 0 1 2.125 4.25l1.195 2.39C29 42 29 42 28.117 44.298L27 46c-3.408-2.884-4.866-4.37-5.812-8.812L21 34c2-1 2-1 4-1"/><path fill="#954F4B" d="m28 42 6 3-2 2c2.986 1.493 5.709 1.118 9 1l2-1v2l3 1c-3.48 1.74-7.195 1.464-11 1-2.895-1.092-5.31-2.435-8-4z"/><path fill="#AD7874" d="M31 46h18l1 3c-3.01.934-3.867 1.044-7 0l-1-1v1c-5.957.293-5.957.293-8 0z"/><path fill="#BCBEC2" d="m29 317 2 3c2.06.724 2.06.724 4 1 .043 2 .04 4 0 6l-1 1h-5z"/><path fill="#B1B8BF" d="M38 320c3.536.536 3.536.536 5 2 .125 2.5.125 2.5 0 5-1 1-1 1-3.5 1.125C37 328 37 328 36 327c-.187-2.437-.187-2.437 0-5z"/><path fill="#515973" d="M45 292v11c-3.767-1.883-4.794-2.691-7-6 4.75-5 4.75-5 7-5"/><path fill="#505771" d="M22 292c3.767 1.883 4.794 2.691 7 6a141 141 0 0 1-5 5h-2z"/><path fill="#848194" d="M21 135c2.125.375 2.125.375 4 1 .625 2.375.625 2.375 1 5l-2 2c-2.625-.375-2.625-.375-5-1-.125-2.375-.125-2.375 0-5z"/><path fill="#ADA4AB" d="M32 132h1v11l-5-1-1-5 1.938-.812C31.33 135.113 31.33 135.113 32 132"/><path fill="#DDDCE1" d="M44 286c1.925 1.606 2.91 2.478 3.34 4.993-.015.738-.03 1.477-.047 2.237l-.03 2.432-.075 2.526-.042 2.56c-.035 2.084-.089 4.168-.146 6.252l-1-3-2-1 .035-2.336.028-3.039.035-3.023c.082-2.586.082-2.586-1.098-4.602.438-2.125.438-2.125 1-4"/><path fill="#E2E3DB" d="M15.563 224.938 18 225v3l-3-1v6l3 1v-3l-2-1h4l-1 5c-2 .043-4 .04-6 0-1-1-1-1-1.133-2.812l.008-2.188-.008-2.187c.214-2.92.758-2.804 3.695-2.875"/><path fill="#CED0D0" d="m27 227 5 1v7h-6c0-5 0-5 1-8"/><path fill="#CBD3D9" d="M43 227c2.125.375 2.125.375 4 1l1 4-2 1 2 1c-1 1-1 1-3.562 1.063L42 235c-.625-2.875-.625-2.875-1-6z"/><path fill="#B0B4BF" d="m35 206 7 1 1 3c-4.625 4-4.625 4-8 4z"/><path fill="#DDB97A" d="M32 40c1.938.087 3.876.195 5.813.313l3.269.175C44.175 41.031 45.13 41.553 47 44l-1 2-3-1-2.191-.684-2.371-.754-2.38-.746C34 42 34 42 32 40"/><path fill="#BDD2DA" d="M20 320c2-.043 4-.04 6 0 1 1 1 1 1.063 4.563L27 328h-2v-6h-3v6h-2z"/><path fill="#DBDCE2" d="m32 191 4 1 1 6-7 1c.875-5.75.875-5.75 2-8"/><path fill="#9396A3" d="m49 135 4 2v3l-4 1 3 2-5-1-1-5z"/><path fill="#FFD4D9" d="M52 274h6l-4 1v2l4 1c.043 1.666.04 3.334 0 5-1 1-1 1-3.562 1.063L52 284l1-3 3 1v-2l-4-1z"/><path fill="#D2D9DA" d="m50 227 5 1v2h-3l3 1v4h-6v-2l4 1v-2l-4-1z"/><path fill="#DADADA" d="M67 28h3l-.187 3.375L70 35l3 2h-9l1-2h2z"/><path fill="#B07D7A" d="M54 21h4c1.757 4.504 2.193 8.176 2 13l-1-2h-2l2-4-3-1c-1.187-3.062-1.187-3.062-2-6"/><path fill="#D6DEE1" d="M50 413v2h-3l3 1v4h-5l-1-2 4 1v-2l-4-1v-3c2.49-1.245 3.41-.777 6 0"/><path fill="#C9D6D9" d="M44 320h2v2h2v-2h2l-.562 2.313c-.666 2.777-.666 2.777.562 5.687h-6z"/><path fill="#ECEDF0" d="m38 213-1 3H23v-2q3.188-.251 6.375-.5l3.586-.281c1.677-.121 3.358-.219 5.039-.219"/><path fill="#655E7E" d="m11 411 4 1v6l-4 1z"/><path fill="#5D647C" d="M43 386h2c-1.345 4.402-3.127 6.51-7 9h-4v-2l2.813-1.25c3.114-1.71 4.23-2.911 6.187-5.75"/><path fill="#F1F2F4" d="m42 291 2 1-5 6 5 5-1 2-7-6c1.782-3.563 3.168-5.356 6-8"/><path fill="#A2A6B4" d="M29 281v6h-5l-1-3c2.625-3 2.625-3 6-3"/><path fill="#EDEDED" d="M77 28v7l-4 1v-7c2-1 2-1 4-1"/><path fill="#E2E0DE" d="m42 24 2 2c-.375 3.125-.375 3.125-1 6l6 1v1h-7c-1.238-3.576-.75-6.337 0-10"/><path fill="#D6AB62" d="m31 43 2.313.563c2.777.665 2.777.665 5.687-.563 2.009.276 4.012.602 6 1-2.415 2.415-3.127 2.296-6.437 2.313l-2.372.05C33.54 45.923 32.677 45.043 31 43"/><path fill="#914945" d="M38.563 10.938 42 11l-1 4-6 1 2-1v-2l-3-1c1-1 1-1 4.563-1.062"/><path fill="#752627" d="M38 24h3l1 6h-4z"/><path fill="#4A4A4A" d="M87 27h3v9l-4-1z"/><path fill="#F4F5F2" d="m53 137 1 2c2.025.652 2.025.652 4 1v2h-9l-1-2h5z"/><path fill="#878787" d="M99 29h3v7h-3z"/><path fill="#954F4B" d="M49 14c3.847 1.248 6.03 2.387 8 6l-1 3v-2h-2v-2l-3-1c-1.187-2.062-1.187-2.062-2-4"/><path fill="#5C6A8C" d="M46 414h6l1 2 3 1v2h-5l-1-2c-2.017-1.134-2.017-1.134-4-2z"/><path fill="#C8D8DC" d="M21 227h4v2h-2v6h-2z"/><path fill="#545B74" d="m22 95 1 4h3v2h-3l1 5-3-1z"/><path fill="#A46966" d="M43 46h6l1 3c-3.01.934-3.867 1.044-7 0z"/><path fill="#E7F2F5" d="M21 137h3v5l-4-1z"/><path fill="#8C403B" d="m28 42 6 3c-3 2-3 2-7 2z"/><path fill="#954F4A" d="m43 12 5 1-2 1 1 3-4-1z"/></svg>